<svg width="45" height="45" viewBox="0 0 45 45" fill="none" xmlns="http://www.w3.org/2000/svg">
<path d="M37.3419 14.0458C38.5146 14.471 37.8832 18.8318 37.8172 19.2857C37.5881 20.8655 36.1695 30.6613 27.1134 34.3915C19.9806 37.3299 12.7144 34.609 8.72857 31.0409C7.79931 30.2092 5.33659 28.0054 5.89883 26.7554C7.03256 24.2309 18.1782 30.7756 26.7849 26.2364C33.7566 22.5601 35.6268 13.4246 37.3418 14.0458L37.3419 14.0458Z" fill="#FADC4A"/>
<path d="M37.5078 20.831C38.097 21.1702 36.8572 24.8707 34.9689 27.7543C34.0638 29.1348 31.741 32.5732 27.114 34.3919C22.5372 36.191 18.5402 35.291 16.8219 34.8784C12.8617 33.9277 9.17005 31.6634 9.40613 31.0027C9.75835 30.0074 18.1658 35.0038 26.0276 32.0003C33.6191 29.0999 36.5989 20.3073 37.5078 20.831L37.5078 20.831Z" fill="#D6BC40"/>
<path d="M20.8551 36.5474C19.2932 36.5449 17.7777 36.3505 16.3297 35.9866C13.3682 35.2677 10.3981 33.7479 8.11531 31.7392C6.77756 30.5622 4.28754 28.3714 5.03091 26.4241C5.52484 25.1314 6.99823 25.0482 7.48289 25.0209C8.4122 24.9683 9.59015 25.0952 10.9519 25.242C13.1437 25.4785 15.8708 25.7727 18.6707 25.4237C18.7084 25.4183 18.7519 25.4152 18.7961 25.4152C19.3093 25.4152 19.7253 25.8312 19.7254 26.3445C19.7254 26.8208 19.367 27.2135 18.9051 27.2674C15.8866 27.6438 13.0401 27.3366 10.7531 27.0894C9.47252 26.95 8.36663 26.832 7.58785 26.8757C7.03307 26.9068 6.7933 27.0187 6.76772 27.0866C6.71523 27.226 6.79841 27.6697 7.44475 28.4657C8.0344 29.192 8.82199 29.8847 9.34285 30.3434C11.3734 32.13 14.1343 33.5402 16.9167 34.2125C20.2892 35.027 23.6927 34.792 26.7599 33.5323C29.7025 32.3242 32.2251 30.2333 34.0549 27.4918C35.6942 25.0337 36.6969 22.1618 36.879 19.4069C36.9427 18.4451 36.9399 16.9735 36.742 15.7292C36.5013 14.2139 36.0845 13.7 35.8763 13.6354C35.7625 13.6001 35.5083 13.7771 35.2133 14.1001C34.7152 14.6414 34.1446 15.5247 33.4871 16.5469C31.6257 19.4352 29.0766 23.3912 24.4998 25.6444C24.3801 25.7044 24.239 25.7395 24.0897 25.7395C23.5756 25.7395 23.1587 25.3226 23.1587 24.8084C23.1587 24.4435 23.3686 24.1276 23.6743 23.9749C27.7946 21.9466 30.1825 18.2415 31.9259 15.5358C32.6313 14.4416 33.2404 13.496 33.8468 12.8371C34.1618 12.4947 35.1208 11.4519 36.4288 11.8581C37.5328 12.2011 38.2563 13.4045 38.5792 15.436C38.858 17.1933 38.7692 19.0138 38.7353 19.5282C38.5323 22.6047 37.4199 25.801 35.6026 28.5239C33.5642 31.5753 30.753 33.9018 27.467 35.2516C25.5213 36.0713 23.2593 36.5476 20.8862 36.5476C20.8753 36.5476 20.8644 36.5476 20.8534 36.5475L20.8551 36.5474Z" fill="black"/>
<path d="M21.3439 26.7731C21.3437 26.7731 21.3436 26.7731 21.3433 26.7731C20.8301 26.7731 20.414 26.3571 20.414 25.8438C20.414 25.4185 20.6997 25.0599 21.0896 24.9496L21.2189 24.9136C21.2962 24.8904 21.3851 24.877 21.4772 24.877C21.9904 24.877 22.4065 25.293 22.4065 25.8063C22.4065 26.2308 22.1218 26.5889 21.7328 26.6999L21.5869 26.7401C21.5134 26.761 21.4291 26.7731 21.3418 26.7731H21.3439Z" fill="black"/>
<path d="M19.0671 32.0278C18.8193 32.0278 18.5704 32.0226 18.3205 32.0121C16.7652 31.947 15.2119 31.6766 13.8282 31.2296C13.456 31.1026 13.1931 30.7561 13.1931 30.3482C13.1931 29.8349 13.6092 29.4189 14.1224 29.4189C14.2214 29.4189 14.3168 29.4343 14.4063 29.4631C15.7314 29.897 17.2647 30.1538 18.8561 30.1661C20.9466 30.2619 23.3735 29.7591 25.608 28.6607C30.3312 26.3421 32.3218 22.275 32.9602 20.6343C33.0972 20.2811 33.4343 20.0352 33.8289 20.0352C34.3421 20.0352 34.7582 20.4512 34.7582 20.9645C34.7582 21.0876 34.7342 21.2052 34.6907 21.3128C33.9774 23.1498 31.7401 27.7187 26.4329 30.3282C24.3022 31.4003 21.7895 32.0281 19.1301 32.0281C19.108 32.0281 19.0859 32.028 19.0638 32.0279L19.0671 32.0278ZM35.0395 13.4603C31.7772 12.8939 29.8006 10.1116 29.8085 9.46194C29.8125 9.25633 29.8666 9.06419 29.9588 8.89598C30.0541 8.7337 30.2138 8.59153 30.4055 8.50998C30.2708 8.58091 30.5565 8.40155 30.8971 8.46665C31.2377 8.53175 31.4329 8.79188 31.5248 8.90806C31.9369 9.43126 32.3342 9.97673 32.8361 10.4159C33.8491 11.2987 34.927 11.7295 36.0361 11.6932C36.7879 11.6685 37.5231 11.4344 38.22 10.9962C38.3612 10.9051 38.5336 10.8511 38.7187 10.8511C39.2319 10.8511 39.648 11.2671 39.648 11.7804C39.648 12.1131 39.4731 12.4049 39.2104 12.5691C38.1377 13.2401 36.8233 13.5578 36.0933 13.5499C35.7049 13.5472 35.3265 13.5123 34.9585 13.4476L35.0395 13.4603Z" fill="black"/>
</svg>
