<svg width="51" height="31" viewBox="0 0 51 31" fill="none" xmlns="http://www.w3.org/2000/svg">
<path fill-rule="evenodd" clip-rule="evenodd" d="M0.592285 2.95068C0.592285 2.28764 0.855677 1.65176 1.32452 1.18292C1.79336 0.714076 2.42924 0.450684 3.09229 0.450684H48.0923C48.7553 0.450684 49.3912 0.714076 49.8601 1.18292C50.3289 1.65176 50.5923 2.28764 50.5923 2.95068C50.5923 3.61372 50.3289 4.24961 49.8601 4.71845C49.3912 5.18729 48.7553 5.45068 48.0923 5.45068H3.09229C2.42924 5.45068 1.79336 5.18729 1.32452 4.71845C0.855677 4.24961 0.592285 3.61372 0.592285 2.95068ZM0.592285 15.4507C0.592285 14.7876 0.855677 14.1518 1.32452 13.6829C1.79336 13.2141 2.42924 12.9507 3.09229 12.9507H48.0923C48.7553 12.9507 49.3912 13.2141 49.8601 13.6829C50.3289 14.1518 50.5923 14.7876 50.5923 15.4507C50.5923 16.1137 50.3289 16.7496 49.8601 17.2185C49.3912 17.6873 48.7553 17.9507 48.0923 17.9507H3.09229C2.42924 17.9507 1.79336 17.6873 1.32452 17.2185C0.855677 16.7496 0.592285 16.1137 0.592285 15.4507ZM3.09229 25.4507C2.42924 25.4507 1.79336 25.7141 1.32452 26.1829C0.855677 26.6518 0.592285 27.2876 0.592285 27.9507C0.592285 28.6137 0.855677 29.2496 1.32452 29.7185C1.79336 30.1873 2.42924 30.4507 3.09229 30.4507H48.0923C48.7553 30.4507 49.3912 30.1873 49.8601 29.7185C50.3289 29.2496 50.5923 28.6137 50.5923 27.9507C50.5923 27.2876 50.3289 26.6518 49.8601 26.1829C49.3912 25.7141 48.7553 25.4507 48.0923 25.4507H3.09229Z" fill="black"/>
</svg>
