<svg width="31" height="31" viewBox="0 0 31 31" fill="none" xmlns="http://www.w3.org/2000/svg">
<path d="M11.5182 18.1865H5.68066C4.30566 18.1865 3.18066 19.3115 3.18066 20.6865V28.1865H11.5182V18.1865Z" stroke="#1E69FF" stroke-width="3" stroke-miterlimit="10" stroke-linecap="round" stroke-linejoin="round"/>
<path d="M17.3433 13.1865H14.0058C12.6309 13.1865 11.5059 14.3115 11.5059 15.6865V28.1865H19.8433V15.6865C19.8433 14.3115 18.7308 13.1865 17.3433 13.1865Z" stroke="#1E69FF" stroke-width="3" stroke-miterlimit="10" stroke-linecap="round" stroke-linejoin="round"/>
<path d="M25.6803 21.9365H19.8428V28.1865H28.1803V24.4365C28.1803 23.0615 27.0553 21.9365 25.6803 21.9365Z" stroke="#1E69FF" stroke-width="3" stroke-miterlimit="10" stroke-linecap="round" stroke-linejoin="round"/>
<path d="M16.3305 3.27417L16.993 4.59916C17.0805 4.78666 17.318 4.96166 17.518 4.98666L18.718 5.18667C19.4805 5.31167 19.668 5.87414 19.118 6.41164L18.1805 7.34914C18.018 7.51164 17.9305 7.81166 17.9805 8.02416L18.243 9.17417C18.4555 10.0867 17.968 10.4367 17.168 9.96167L16.043 9.29917C15.843 9.17417 15.5055 9.17417 15.3055 9.29917L14.1805 9.96167C13.3805 10.4367 12.8929 10.0867 13.1054 9.17417L13.368 8.02416C13.418 7.81166 13.3305 7.49914 13.168 7.34914L12.243 6.42416C11.693 5.87416 11.868 5.32414 12.643 5.19914L13.843 4.99917C14.043 4.96167 14.2805 4.78667 14.368 4.61167L15.0305 3.28664C15.393 2.56164 15.968 2.56167 16.3305 3.27417Z" stroke="#1E69FF" stroke-width="1.5" stroke-linecap="round" stroke-linejoin="round"/>
</svg>
