<svg width="31" height="31" viewBox="0 0 31 31" fill="none" xmlns="http://www.w3.org/2000/svg">
<path d="M11.6441 18.1865H5.80664C4.43164 18.1865 3.30664 19.3115 3.30664 20.6865V28.1865H11.6441V18.1865Z" stroke="#E0008E" stroke-width="3" stroke-miterlimit="10" stroke-linecap="round" stroke-linejoin="round"/>
<path d="M17.4693 13.1865H14.1318C12.7568 13.1865 11.6318 14.3115 11.6318 15.6865V28.1865H19.9693V15.6865C19.9693 14.3115 18.8568 13.1865 17.4693 13.1865Z" stroke="#E0008E" stroke-width="3" stroke-miterlimit="10" stroke-linecap="round" stroke-linejoin="round"/>
<path d="M25.8062 21.9365H19.9688V28.1865H28.3062V24.4365C28.3062 23.0615 27.1812 21.9365 25.8062 21.9365Z" stroke="#E0008E" stroke-width="3" stroke-miterlimit="10" stroke-linecap="round" stroke-linejoin="round"/>
<path d="M16.4565 3.27417L17.119 4.59916C17.2065 4.78666 17.444 4.96166 17.644 4.98666L18.844 5.18667C19.6065 5.31167 19.794 5.87414 19.244 6.41164L18.3065 7.34914C18.144 7.51164 18.0565 7.81166 18.1065 8.02416L18.369 9.17417C18.5815 10.0867 18.094 10.4367 17.294 9.96167L16.169 9.29917C15.969 9.17417 15.6315 9.17417 15.4315 9.29917L14.3065 9.96167C13.5065 10.4367 13.0189 10.0867 13.2314 9.17417L13.494 8.02416C13.544 7.81166 13.4565 7.49914 13.2939 7.34914L12.3689 6.42416C11.8189 5.87416 11.9939 5.32414 12.7689 5.19914L13.969 4.99917C14.169 4.96167 14.4065 4.78667 14.494 4.61167L15.1565 3.28664C15.519 2.56164 16.094 2.56167 16.4565 3.27417Z" stroke="#E0008E" stroke-width="1.5" stroke-linecap="round" stroke-linejoin="round"/>
</svg>
